<?xml version="1.0" encoding="utf-8"?>
<!-- Generator: Adobe Illustrator 15.1.0, SVG Export Plug-In . SVG Version: 6.00 Build 0)  -->
<!DOCTYPE svg PUBLIC "-//W3C//DTD SVG 1.1//EN" "http://www.w3.org/Graphics/SVG/1.1/DTD/svg11.dtd">
<svg version="1.1" id="Layer_1" xmlns="http://www.w3.org/2000/svg" xmlns:xlink="http://www.w3.org/1999/xlink" x="0px" y="0px"
	 width="360px" height="427px" viewBox="0 0 360 427" enable-background="new 0 0 360 427" xml:space="preserve">
<path fill="#0ED3B3" d="M180.078,0L0.158,63.922L0.113,112.95h0l-0.003,3.28l43.75,15.543v15.724l179.93,63.446l48.551-17.249
	v-27.806l39.098,13.89l45.48-16.104l3.08-1.091v-98.66L180.078,0z M341.492,67.179l-161.453,56.809l-32.364-11.413l160.8-57.127
	L341.492,67.179z M300.174,52.499l-160.831,57.139l-35.567-12.542L264.739,39.91L300.174,52.499z M256.439,36.961L95.444,94.159
	L59.876,81.617l161.129-57.246L256.439,36.961z M180.078,9.831l32.627,11.592L51.545,78.68l-32.75-11.547L180.078,9.831z
	 M9.343,109.679l0.033-36.046l166.047,58.549v36.501l-84.476-30.012L9.343,109.679z M219.172,199.491L53.088,140.929v-5.877
	l34.013,12.084l92.935,33.018l39.136-13.909V199.491z M306.811,168.304l-34.469-12.247v-8.669l34.469-12.271V168.304z
	 M350.773,156.023l-34.736,12.299v-46.32l-52.922,18.837v46.303l-34.717,12.334v-46.341l-43.748,15.549v-36.499l166.123-58.452
	V156.023z M315.943,279.467L136.06,215.97l-48.363,17.328v27.719l-2.641-0.934l-35.136-12.417v0l-1.535-0.542l0,0v0L0,264.313
	v98.765L179.924,427l179.924-63.923v-52.884l-43.904-15.597V279.467z M298.014,282.962l-30.02,10.666l-32.531-11.471l30.038-10.672
	L298.014,282.962z M257.174,268.546l-30.043,10.673l-35.567-12.542l30.062-10.681L257.174,268.546z M213.299,253.058l-30.067,10.683
	l-35.568-12.541l30.087-10.69L213.299,253.058z M136.083,225.8l33.34,11.77l-30.091,10.691l-33.231-11.717L136.083,225.8z
	 M96.923,243.13l166.007,58.534v37.098l-34.563-12.186v-15.848l-107.798-38.095v0l-23.646-8.356V243.13z M253.344,345.206
	l-24.978,8.872v-17.679L253.344,345.206z M169.422,299.722l-29.763,10.575l-35.568-12.542l29.803-10.588L169.422,299.722z
	 M90.044,271.67l35.527,12.555l-29.812,10.591l-35.567-12.542L90.044,271.67z M48.393,256.951l33.329,11.778L51.86,279.337
	l-33.365-11.765L48.393,256.951z M175.311,415.532L9.227,356.526v-82.179l166.084,58.562V415.532z M147.99,313.234l29.755-10.571
	l32.495,11.483l-29.719,10.558L147.99,313.234z M350.62,356.526l-166.084,59.006v-82.423l34.604-12.293v46.372l53.017-18.833V301.98
	l34.561-12.279v46.371l43.903-15.598V356.526z M342.03,313.695l-26.087,9.268v-18.535L342.03,313.695z"/>
</svg>
