<?xml version="1.0" encoding="utf-8"?>
<!-- Generator: Adobe Illustrator 15.1.0, SVG Export Plug-In . SVG Version: 6.00 Build 0)  -->
<!DOCTYPE svg PUBLIC "-//W3C//DTD SVG 1.1//EN" "http://www.w3.org/Graphics/SVG/1.1/DTD/svg11.dtd">
<svg version="1.1" id="Layer_1" xmlns="http://www.w3.org/2000/svg" xmlns:xlink="http://www.w3.org/1999/xlink" x="0px" y="0px"
	 width="322px" height="342px" viewBox="235.466 211 322 342" enable-background="new 235.466 211 322 342" xml:space="preserve">
<g>
	<g>
		
			<rect x="483.895" y="335.124" transform="matrix(-0.9395 -0.3426 0.3426 -0.9395 867.0831 827.4144)" fill="#1E2A32" width="45.452" height="4.001"/>
	</g>
	<g>
		
			<rect x="473.31" y="214.172" transform="matrix(-0.3359 -0.9419 0.9419 -0.3359 353.9677 846.2314)" fill="#1E2A32" width="4" height="168.316"/>
	</g>
	<g>
		
			<rect x="394.491" y="367.919" transform="matrix(-0.9417 -0.3365 0.3365 -0.9417 685.7866 858.6846)" fill="#1E2A32" width="45.616" height="4"/>
	</g>
	<g>
		<polygon fill="#1E2A32" points="398.031,362.293 394.032,362.293 394.032,328.014 236.828,271.939 238.172,268.171 
			398.031,325.193 		"/>
	</g>
	<g>
		<path fill="#1E2A32" d="M437.984,379.709v-31.397l-41.915,16.306L235.5,308.341v-39.887L396.483,211l160.982,57.454v66.491
			l-30.252,11.861v-30.375l-55.762,19.891v31.449L437.984,379.709z M441.984,342.463v31.572l25.469-9.085V333.5l63.76-22.744v30.183
			l22.253-8.725v-60.941l-156.982-56.026L239.5,271.274v34.23l156.496,54.85L441.984,342.463z"/>
	</g>
	<g>
		<polygon fill="#1E2A32" points="396.483,553 235.5,495.547 235.5,429.779 239.5,429.779 239.5,492.727 396.483,548.752 
			553.466,492.727 553.466,457.344 557.465,457.344 557.465,495.547 556.138,496.021 		"/>
	</g>
	<g>
		<polygon fill="#1E2A32" points="316.787,436.588 315.444,432.819 323.281,430.023 323.281,397.965 327.281,397.965 
			327.281,432.845 		"/>
	</g>
	<g>
		<polygon fill="#1E2A32" points="423.62,509.751 423.62,477.697 395.299,487.901 393.944,484.137 427.619,472.004 427.619,504.077 
			481.816,484.745 481.816,452.647 516.85,440.15 516.85,471.468 554.663,457.094 556.083,460.834 512.85,477.268 512.85,445.824 
			485.816,455.469 485.816,487.565 		"/>
	</g>
	<g>
		
			<rect x="339.722" y="373.108" transform="matrix(-0.3914 -0.9202 0.9202 -0.3914 114.6927 859.9679)" fill="#1E2A32" width="4.001" height="37.899"/>
	</g>
	<g>
		
			<rect x="320.169" y="425.345" transform="matrix(-0.9427 -0.3336 0.3336 -0.9427 642.5953 965.0253)" fill="#1E2A32" width="167.956" height="4"/>
	</g>
	<g>
		
			<rect x="514.005" y="449.886" transform="matrix(-0.9422 -0.3351 0.3351 -0.9422 889.6158 1057.2639)" fill="#1E2A32" width="44.023" height="4"/>
	</g>
	<g>
		
			<rect x="233.228" y="456.535" transform="matrix(-0.9418 -0.3361 0.3361 -0.9418 461.58 996.9626)" fill="#1E2A32" width="167.683" height="4.001"/>
	</g>
	<g>
		
			<rect x="352.689" y="410.926" transform="matrix(-0.942 -0.3356 0.3356 -0.942 710.1151 948.5698)" fill="#1E2A32" width="168.662" height="4"/>
	</g>
	<g>
		
			<rect x="318.587" y="456.463" transform="matrix(-0.9419 -0.336 0.336 -0.9419 628.0427 1025.5923)" fill="#1E2A32" width="168.317" height="4.001"/>
	</g>
	<g>
		
			<rect x="251.528" y="405.912" transform="matrix(-0.369 -0.9294 0.9294 -0.369 -47.4979 816.8627)" fill="#1E2A32" width="4.001" height="37.284"/>
	</g>
	<g>
		
			<rect x="264.741" y="444.014" transform="matrix(-0.9418 -0.3362 0.3362 -0.9418 526.7549 983.228)" fill="#1E2A32" width="167.505" height="4"/>
	</g>
	<g>
		<polygon fill="#1E2A32" points="398.031,552.605 236.835,495.766 238.165,491.992 394.032,546.953 394.032,486.803 
			398.031,486.803 		"/>
	</g>
</g>
<g>
	<g>
		
			<rect x="343.283" y="167.059" transform="matrix(-0.3358 -0.9419 0.9419 -0.3358 223.616 660.108)" fill="#1E2A32" width="2.501" height="168.316"/>
	</g>
	<g>
		
			<rect x="369.352" y="176.927" transform="matrix(-0.3358 -0.9419 0.9419 -0.3358 249.118 697.8374)" fill="#1E2A32" width="2.501" height="168.315"/>
	</g>
	<g>
		
			<rect x="394.984" y="186.794" transform="matrix(-0.3358 -0.9419 0.9419 -0.3358 274.0915 735.1697)" fill="#1E2A32" width="2.501" height="168.316"/>
	</g>
	<g>
		
			<rect x="421.206" y="195.765" transform="matrix(-0.3358 -0.9419 0.9419 -0.3358 300.6375 771.8446)" fill="#1E2A32" width="2.501" height="168.316"/>
	</g>
	<g>
		
			<rect x="447.18" y="204.736" transform="matrix(-0.3358 -0.9419 0.9419 -0.3358 326.9177 808.3018)" fill="#1E2A32" width="2.501" height="168.316"/>
	</g>
</g>
</svg>
