<?xml version="1.0" encoding="utf-8"?>
<!-- Generator: Adobe Illustrator 15.1.0, SVG Export Plug-In . SVG Version: 6.00 Build 0)  -->
<!DOCTYPE svg PUBLIC "-//W3C//DTD SVG 1.1//EN" "http://www.w3.org/Graphics/SVG/1.1/DTD/svg11.dtd">
<svg version="1.1" id="Layer_1" xmlns="http://www.w3.org/2000/svg" xmlns:xlink="http://www.w3.org/1999/xlink" x="0px" y="0px"
	 width="110px" height="523.125px" viewBox="0 0 110 523.125" enable-background="new 0 0 110 523.125" xml:space="preserve">
<g>
	<polygon fill="#FFFFFF" points="0,19.448 55,0 110,19.448 110,90.553 55,110.001 0,90.553 	"/>
	<rect x="47.5" y="30.001" fill="#E4E3E0" width="29.5" height="4.5"/>
	<rect x="47.5" y="36.501" fill="#E4E3E0" width="29.5" height="4.5"/>
	<rect x="47.5" y="43.001" fill="#E4E3E0" width="29.5" height="4.5"/>
	<rect x="47.5" y="49.5" fill="#E4E3E0" width="29.5" height="4.5"/>
	<rect x="47.5" y="56.001" fill="#E4E3E0" width="29.5" height="4.5"/>
	<rect x="18.5" y="30.001" fill="#E4E3E0" width="26" height="30.5"/>
	<path fill="#12E3C0" d="M83.486,24.672c-0.07-0.934-0.839-1.671-1.786-1.671H13.3c-0.947,0-1.716,0.737-1.786,1.671L11.5,71.073
		c0,0.998,0.806,1.807,1.8,1.807h68.4c0.994,0,1.8-0.809,1.8-1.807L83.486,24.672z M80.62,64.205H14.38V25.892h66.24V64.205z"/>
	<path fill="#12E3C0" d="M59.02,81.555c-2.88-0.723-3.6-2.892-3.6-5.783v-0.723H47.5h-7.92v0.723c0,2.892-0.72,5.061-3.6,5.783
		c-0.699,0.175-0.72,1.445,0,1.445H47.5h11.52C59.74,83,59.719,81.729,59.02,81.555"/>
	<rect x="73.424" y="43.001" fill="#FFFFFF" width="20.076" height="44.875"/>
	<path fill="#00B899" d="M91.394,41.501H75.606c-1.712,0-3.106,1.405-3.106,3.132v41.234c0,1.728,1.394,3.134,3.106,3.134h15.787
		c1.712,0,3.106-1.406,3.106-3.134V44.633C94.5,42.906,93.105,41.501,91.394,41.501 M83.5,43.698c0.25,0,0.452,0.185,0.452,0.411
		c0,0.228-0.203,0.412-0.452,0.412s-0.452-0.185-0.452-0.412C83.048,43.883,83.25,43.698,83.5,43.698 M81.667,45.944h3.667
		c0.192,0,0.347,0.158,0.347,0.352s-0.155,0.352-0.347,0.352h-3.667c-0.192,0-0.348-0.158-0.348-0.352S81.474,45.944,81.667,45.944
		 M83.5,87.728c-1.116,0-2.022-0.913-2.022-2.039c0-1.125,0.906-2.039,2.022-2.039s2.022,0.914,2.022,2.039
		C85.522,86.814,84.616,87.728,83.5,87.728 M93.156,81.944H73.844V48.876h19.312V81.944z"/>
	<rect x="75.5" y="50.501" fill="#E4E3E0" width="16" height="11.5"/>
	<rect x="75.5" y="64.001" fill="#E4E3E0" width="16" height="1.999"/>
	<rect x="75.5" y="67.5" fill="#E4E3E0" width="16" height="2"/>
	<rect x="75.5" y="71.001" fill="#E4E3E0" width="16" height="2"/>
	<rect x="75.5" y="74.501" fill="#E4E3E0" width="16" height="1.999"/>
	<rect x="75.5" y="78" fill="#E4E3E0" width="16" height="2.001"/>
</g>
<g>
	<polygon fill="#FFFFFF" points="0,143.448 55,124 110,143.448 110,214.554 55,234.001 0,214.554 	"/>
	<path fill-rule="evenodd" clip-rule="evenodd" fill="#E4E3E0" d="M39.75,160.001c-0.158,0-0.312,0.017-0.46,0.047
		c0.409,0.125,0.71,0.502,0.71,0.953c0,0.552-0.448,0.999-1,0.999c-0.553,0-1-0.447-1-0.999c0-0.059,0.008-0.114,0.017-0.169
		c-0.318,0.388-0.517,0.877-0.517,1.419c0,1.242,1.008,2.25,2.25,2.25s2.25-1.008,2.25-2.25
		C42,161.008,40.992,160.001,39.75,160.001"/>
	<path fill="#E4E3E0" d="M72.58,160.519c0.204,0,0.396,0.006,0.574,0.015l0.05-0.999c-0.193-0.009-0.402-0.016-0.624-0.016
		c-1.626,0-3.877,0.325-5.366,1.869l-1.64,1.701l2.362-0.007h0.025c2.586,0,3.763,0.986,4.295,1.812l0.841-0.541
		c-0.611-0.951-2.021-2.271-5.136-2.271c-0.009,0-0.019,0-0.028,0C69.181,160.788,71.153,160.519,72.58,160.519"/>
	<path fill="#00B899" d="M54.603,162.001c1.856,0,3.819,0.667,5.213,1.269l1.875,0.797l1.06-1.565c0,0-4.162-2.5-8.147-2.5
		s-7.353,2.5-7.353,2.5l0.784,1.565l2.012-0.891C51.198,162.612,52.851,162.001,54.603,162.001"/>
	<path fill="#00B899" d="M40,156.001c3.584,0,6.5,2.916,6.5,6.5s-2.916,6.5-6.5,6.5s-6.5-2.916-6.5-6.5S36.416,156.001,40,156.001
		 M40,154.001c-4.694,0-8.5,3.806-8.5,8.5s3.806,8.5,8.5,8.5s8.5-3.806,8.5-8.5S44.694,154.001,40,154.001"/>
	<path fill-rule="evenodd" clip-rule="evenodd" fill="#00B899" d="M30.25,161.001c0.966,0,1.75,0.783,1.75,1.75
		s-0.784,1.75-1.75,1.75c-0.967,0-1.75-0.783-1.75-1.75S29.283,161.001,30.25,161.001"/>
	<path fill="#00B899" d="M70,156.001c3.584,0,6.5,2.916,6.5,6.5s-2.916,6.5-6.5,6.5s-6.5-2.916-6.5-6.5S66.416,156.001,70,156.001
		 M70,154.001c-4.694,0-8.5,3.806-8.5,8.5s3.806,8.5,8.5,8.5s8.5-3.806,8.5-8.5S74.694,154.001,70,154.001"/>
	<path fill-rule="evenodd" clip-rule="evenodd" fill="#00B899" d="M79.75,161.001c0.967,0,1.75,0.783,1.75,1.75
		s-0.783,1.75-1.75,1.75c-0.966,0-1.75-0.783-1.75-1.75S78.784,161.001,79.75,161.001"/>
	<path fill="#12E3C0" d="M77.114,203.235c-9.504-0.729-17.652-6.171-22.115-11.081c-4.462,4.91-12.61,10.353-22.116,11.081
		c-9.995,0.766-19.384-3.798-18.688-14.173c0.234-3.509,2.604-8.176,7.532-7.782c0.455,0.035,0.86,0.127,1.22,0.278
		c0.013,0,0.023,0.012,0.023,0.012c1.94,0.51,3.37,2.27,3.37,4.366c0,2.501-2.033,4.527-4.544,4.527
		c-2.279,0-4.16-1.656-4.486-3.833c-0.012-0.023-0.024-0.046-0.045-0.07c-1.489,3.972,1.336,8.362,4.461,8.895
		c10.646,1.841,14.549-14.869,24.544-16.398c3.625-0.556,6.67,0.556,8.727,2.559c2.057-2.003,5.1-3.114,8.727-2.559
		c9.993,1.528,13.899,18.238,24.544,16.398c3.124-0.532,5.947-4.923,4.461-8.895c-0.021,0.023-0.034,0.047-0.045,0.07
		c-0.328,2.178-2.208,3.833-4.487,3.833c-2.51,0-4.545-2.026-4.545-4.527c0-2.097,1.429-3.856,3.37-4.366
		c0,0,0.012-0.012,0.023-0.012c0.36-0.151,0.767-0.243,1.221-0.278c4.928-0.394,7.298,4.273,7.53,7.782
		C96.5,199.438,87.109,204.001,77.114,203.235"/>
</g>
<g>
	<polygon fill="#FFFFFF" points="0,265.447 55,246 110,265.447 110,336.553 55,356 0,336.553 	"/>
	<path fill="#12E3C0" d="M53.008,309.311c0.479-0.51,0.53-1.393,0.118-1.959l-1.817-2.51c-0.411-0.568-0.441-1.514-0.068-2.109
		l1.412-2.633c0.284-0.641,1.087-1.137,1.785-1.102l3.082,0.15c0.697,0.033,1.374-0.504,1.506-1.191l0.625-6.221
		c0.008-0.701-0.55-1.365-1.239-1.477l-3.049-0.486c-0.688-0.109-1.377-0.76-1.527-1.445l-0.863-2.869
		c-0.247-0.654-0.028-1.578,0.487-2.051l2.279-2.084c0.517-0.471,0.64-1.346,0.275-1.943c0,0-0.857-1.408-1.802-2.57
		c-0.945-1.166-2.144-2.293-2.144-2.293c-0.511-0.48-1.389-0.535-1.954-0.127l-2.494,1.822c-0.564,0.414-1.507,0.441-2.097,0.066
		l-2.623-1.43c-0.639-0.285-1.136-1.096-1.104-1.795l0.141-3.094c0.032-0.701-0.502-1.383-1.19-1.518l-6.194-0.643
		c-0.698-0.01-1.356,0.549-1.465,1.24l-0.476,3.061c-0.107,0.693-0.755,1.383-1.436,1.531l-2.854,0.859
		c-0.652,0.248-1.572,0.025-2.043-0.494l-2.082-2.295c-0.469-0.52-1.342-0.645-1.938-0.279c0,0-1.396,0.857-2.551,1.803
		c-1.158,0.945-2.278,2.148-2.278,2.148c-0.476,0.512-0.53,1.395-0.117,1.961l1.817,2.51c0.413,0.568,0.442,1.518,0.07,2.107
		l-1.413,2.635c-0.282,0.639-1.087,1.135-1.784,1.102l-3.082-0.15c-0.698-0.033-1.376,0.502-1.507,1.191l-0.626,6.221
		c-0.006,0.701,0.552,1.365,1.241,1.475l3.048,0.486c0.69,0.111,1.379,0.762,1.529,1.447l0.861,2.869
		c0.249,0.656,0.028,1.578-0.488,2.049l-2.282,2.084c-0.515,0.473-0.639,1.348-0.273,1.945c0,0,0.859,1.404,1.804,2.57
		c0.946,1.164,2.143,2.293,2.143,2.293c0.511,0.48,1.388,0.535,1.955,0.123l2.491-1.818c0.565-0.414,1.509-0.441,2.099-0.066
		l2.626,1.428c0.637,0.291,1.133,1.094,1.101,1.795l-0.141,3.096c-0.032,0.701,0.503,1.383,1.188,1.52l6.194,0.641
		c0.697,0.01,1.358-0.549,1.466-1.242l0.475-3.059c0.11-0.693,0.756-1.383,1.438-1.533l2.852-0.855
		c0.655-0.248,1.575-0.025,2.043,0.494l2.081,2.295c0.47,0.521,1.345,0.646,1.937,0.283c0,0,1.398-0.859,2.556-1.807
		C51.891,310.512,53.008,309.311,53.008,309.311 M30.397,296.287c-2.177-2.682-1.781-6.621,0.883-8.799
		c2.664-2.182,6.588-1.773,8.763,0.91c2.174,2.68,1.78,6.619-0.885,8.799C36.497,299.377,32.573,298.969,30.397,296.287"/>
	<path fill="#00B899" d="M81.908,333.475c0.558-0.24,0.911-0.92,0.782-1.516l-0.568-2.635c-0.129-0.6,0.179-1.363,0.684-1.701
		l2.047-1.59c0.451-0.408,1.262-0.52,1.805-0.246l2.4,1.209c0.543,0.275,1.27,0.09,1.615-0.412l2.676-4.719
		c0.253-0.553,0.041-1.277-0.469-1.607l-2.255-1.465c-0.51-0.33-0.829-1.092-0.709-1.688l0.319-2.582
		c0.032-0.609,0.53-1.262,1.107-1.455l2.543-0.848c0.576-0.193,0.981-0.844,0.898-1.449c0,0-0.189-1.42-0.534-2.68
		c-0.344-1.258-0.903-2.576-0.903-2.576c-0.236-0.559-0.917-0.916-1.51-0.789l-2.62,0.566c-0.595,0.127-1.356-0.186-1.693-0.691
		l-1.589-2.061c-0.408-0.455-0.519-1.271-0.248-1.814l1.196-2.406c0.271-0.545,0.083-1.277-0.415-1.625l-4.703-2.701
		c-0.551-0.252-1.274-0.043-1.602,0.467l-1.451,2.26c-0.329,0.514-1.085,0.834-1.678,0.711l-2.574-0.328
		c-0.604-0.033-1.259-0.537-1.452-1.113l-0.85-2.559c-0.193-0.578-0.843-0.986-1.444-0.906c0,0-1.413,0.188-2.665,0.529
		c-1.252,0.342-2.563,0.9-2.563,0.9c-0.558,0.236-0.91,0.918-0.781,1.516l0.568,2.635c0.129,0.596-0.179,1.359-0.683,1.699
		l-2.048,1.588c-0.449,0.408-1.263,0.52-1.805,0.246l-2.4-1.209c-0.543-0.273-1.27-0.088-1.616,0.412l-2.675,4.719
		c-0.252,0.555-0.041,1.279,0.469,1.609l2.254,1.465c0.51,0.33,0.829,1.09,0.71,1.686l-0.319,2.582
		c-0.033,0.611-0.531,1.264-1.106,1.457l-2.542,0.85c-0.577,0.191-0.98,0.842-0.9,1.447c0,0,0.192,1.418,0.535,2.678
		c0.344,1.258,0.903,2.578,0.903,2.578c0.236,0.562,0.917,0.918,1.512,0.787l2.619-0.562c0.593-0.129,1.355,0.182,1.693,0.691
		l1.588,2.061c0.406,0.451,0.52,1.27,0.248,1.812l-1.195,2.408c-0.272,0.545-0.085,1.275,0.415,1.625l4.704,2.699
		c0.552,0.254,1.272,0.045,1.6-0.469l1.452-2.26c0.329-0.512,1.084-0.83,1.678-0.709l2.572,0.326
		c0.605,0.035,1.259,0.537,1.45,1.113l0.854,2.561c0.192,0.578,0.842,0.986,1.444,0.906c0,0,1.412-0.189,2.665-0.531
		C80.597,334.031,81.908,333.475,81.908,333.475 M67.744,315.342c-0.904-3.305,1.029-6.713,4.317-7.613
		c3.288-0.898,6.688,1.051,7.59,4.357c0.904,3.307-1.029,6.713-4.317,7.613C72.044,320.598,68.646,318.648,67.744,315.342"/>
</g>
<g>
	<polygon fill="#12E3C0" points="51.943,413.422 51.889,411.688 22.679,401.801 14.771,404.218 15.378,409.542 8.065,406.643 
		0.225,409.716 0.769,424.097 29.987,435.185 59.261,424.097 59.206,417.163 	"/>
	<polygon fill="#12E3C0" points="8.639,390.125 36.882,400.059 44.639,397.961 45.348,392.693 51.388,394.83 59.231,392.433 
		59.261,377.683 30.013,366.815 0.794,377.683 0.789,384.14 7.342,387.06 	"/>
	<polygon fill="#FFFFFF" points="30.009,435.167 30.009,419.885 37.318,417.343 37.337,424.985 44.62,422.405 44.62,414.722 
		51.943,412.131 51.943,419.82 59.235,417.24 59.254,424.759 	"/>
	<polygon fill="#FFFFFF" points="59.261,377.149 59.261,392.433 51.953,394.974 51.934,387.331 44.65,389.912 44.65,397.596 
		37.327,400.186 37.327,392.496 30.036,395.076 30.016,387.559 	"/>
	<path fill="#00B899" d="M52.657,411.521l-29.981-10.536l-8.061,2.875v4.6l-6.552-2.305L0,409.006v15.845v0.544L29.987,436
		l29.988-10.605v-0.544v-8.231l-7.317-2.588V411.521z M43.822,415.204v6.155l-5.761-2.022v-2.085v-0.544l-17.967-6.321L16.154,409
		v-3.51L43.822,415.204z M28.237,414.882l-4.96,1.754l-5.928-2.081l4.967-1.757L28.237,414.882z M20.928,412.311l-4.969,1.757
		l-5.928-2.081l4.976-1.759L20.928,412.311z M30.087,419.026l-5.422-1.902l4.959-1.754l5.416,1.905L30.087,419.026z M38.062,420.967
		l4.163,1.462l-4.163,1.472V420.967z M44.666,413.871l-5.422-1.904l5.006-1.771l5.419,1.904L44.666,413.871z M37.855,411.479
		l-5.927-2.081l5.01-1.771l5.924,2.082L37.855,411.479z M30.539,408.911l-5.928-2.081l5.015-1.773l5.924,2.082L30.539,408.911z
		 M8.065,407.785l5.554,1.954l-4.976,1.76l-5.561-1.952L8.065,407.785z M30.756,420.421l5.767-2.04v6.607v1.087l8.836-3.124v-7.695
		l5.761-2.037v7.694l7.317-2.589v5.982l-27.681,9.79V420.421z M22.68,402.615l5.557,1.953l-5.015,1.774l-5.539-1.944L22.68,402.615z
		 M1.538,410.671l27.681,9.717v13.709l-27.681-9.79V410.671z M57.005,417.2l-4.348,1.538v-3.076L57.005,417.2z"/>
	<path fill="#00B899" d="M30.013,366L0.538,376.425l-0.512,0.181l-0.007,8.136l0,0.544l7.292,2.579v2.609L37.299,401l8.092-2.861
		v-4.614l6.516,2.305L60,392.977v-15.827v-0.544L30.013,366z M1.557,384.198l0.006-5.981l27.674,9.715v6.058L15.979,389.3
		L1.557,384.198z M17.296,382.11l26.827-9.488l5.906,2.089l-26.806,9.48L17.296,382.11z M15.908,381.623l-5.929-2.081l26.856-9.499
		l5.906,2.09L15.908,381.623z M30.006,386.572l-5.394-1.894l26.8-9.479l5.503,1.945L30.006,386.572z M35.451,369.555l-26.861,9.5
		l-5.458-1.916l26.881-9.508L35.451,369.555z M8.848,388.408l6.49,2.295l14.668,5.188l6.523-2.308v5.518l-27.681-9.718V388.408z
		 M43.853,397.052l-5.786,2.046v-7.688l-7.291,2.579v-6.056l27.688-9.699v13.654l-5.79,2.041v-7.686l-8.82,3.125V397.052z
		 M45.391,390.455l5.745-2.036v5.507l-5.745-2.032V390.455z"/>
</g>
<g>
	<polygon fill="#12E3C0" points="5.31,461.904 6.28,465.906 10.115,464.775 7.25,467.645 10.115,470.513 6.28,469.387 5.31,473.386 
		4.336,469.387 0.503,470.513 3.367,467.645 0.503,464.775 4.336,465.906 	"/>
	<polygon fill="#12E3C0" points="20.231,461.704 21.205,465.772 25.053,464.624 22.178,467.541 25.053,470.457 21.205,469.312 
		20.231,473.379 19.255,469.312 15.409,470.457 18.282,467.541 15.409,464.624 19.255,465.772 	"/>
	<polygon fill="#12E3C0" points="35.458,461.704 36.433,465.772 40.28,464.624 37.406,467.541 40.28,470.457 36.433,469.312 
		35.458,473.379 34.482,469.312 30.636,470.457 33.509,467.541 30.636,464.624 34.482,465.772 	"/>
	<polygon fill="#12E3C0" points="50.178,461.704 51.152,465.772 55,464.625 52.125,467.541 55,470.457 51.152,469.312 
		50.178,473.379 49.202,469.312 45.356,470.457 48.229,467.541 45.356,464.625 49.202,465.772 	"/>
	<path fill-rule="evenodd" clip-rule="evenodd" fill="#12E3C0" d="M45.084,491.286v-4.549v-0.221h-4.32H29.426h-4.319v0.221v4.816
		H14.308v-4.816v-0.221H9.988H0v-9.632h54.803v14.401H45.084z M9.988,449.263v0.221h4.319h10.799h4.319v-0.221v-4.816h11.338v4.549
		v0.221h4.32h9.719v9.363H0v-14.133h9.988V449.263z"/>
</g>
<g>
	<path fill="#12E3C0" d="M12,498c1.625,0,3.179,0.317,4.663,0.95c1.492,0.634,2.771,1.483,3.837,2.55s1.917,2.346,2.55,3.838
		C23.683,506.82,24,508.375,24,510s-0.317,3.18-0.95,4.662c-0.633,1.492-1.483,2.771-2.55,3.838s-2.346,1.916-3.837,2.55
		C15.179,521.683,13.625,522,12,522s-3.18-0.317-4.663-0.95c-1.492-0.634-2.771-1.483-3.837-2.55s-1.917-2.346-2.55-3.838
		C0.317,513.18,0,511.625,0,510s0.317-3.18,0.95-4.662c0.633-1.492,1.483-2.771,2.55-3.838s2.346-1.916,3.837-2.55
		C8.82,498.317,10.375,498,12,498z M12,499.6c-1.409,0-2.754,0.275-4.038,0.825c-1.275,0.551-2.379,1.292-3.312,2.225
		c-0.933,0.935-1.675,2.038-2.225,3.313C1.875,507.246,1.6,508.592,1.6,510s0.275,2.755,0.825,4.037
		c0.55,1.275,1.292,2.379,2.225,3.313c0.934,0.933,2.038,1.674,3.312,2.225c1.283,0.55,2.629,0.825,4.038,0.825
		c1.408,0,2.754-0.275,4.038-0.825c1.275-0.551,2.379-1.292,3.312-2.225c0.933-0.935,1.675-2.038,2.225-3.313
		c0.55-1.282,0.825-2.629,0.825-4.037s-0.275-2.754-0.825-4.037c-0.55-1.275-1.292-2.379-2.225-3.313
		c-0.934-0.933-2.038-1.674-3.312-2.225C14.754,499.875,13.408,499.6,12,499.6z M6.4,510.8v-1.6h8.238l-1.838-1.838l1.138-1.125
		L17.7,510l-3.763,3.763l-1.138-1.125l1.838-1.838H6.4z"/>
</g>
<g>
	<path fill="#12E3C0" d="M70.5,523.125h-35v-26.25h35V523.125z M37.688,520.938h30.625v-20.337L53,515.93l-15.312-15.329V520.938z
		 M39.243,499.062L53,512.82l13.757-13.758H39.243z"/>
</g>
</svg>
